<?xml version="1.0" standalone="no"?>
<!DOCTYPE svg PUBLIC "-//W3C//DTD SVG 20010904//EN"
 "http://www.w3.org/TR/2001/REC-SVG-20010904/DTD/svg10.dtd">
<svg version="1.0" xmlns="http://www.w3.org/2000/svg"
 width="250.000000pt" height="74.000000pt" viewBox="0 0 250.000000 74.000000"
 preserveAspectRatio="xMidYMid meet">

<g transform="translate(0.000000,74.000000) scale(0.100000,-0.100000)"
fill="#000000" stroke="none">
<path d="M1089 677 c-20 -12 -51 -39 -68 -59 -21 -25 -43 -38 -64 -41 -27 -3
-26 -4 11 -5 23 -1 42 2 42 8 0 5 8 7 18 4 14 -5 14 -4 2 5 -12 8 -10 15 15
41 17 18 46 40 65 50 19 11 31 19 25 20 -5 0 -26 -10 -46 -23z"/>
<path d="M1198 644 c3 -27 -2 -42 -19 -62 l-24 -27 28 24 c19 17 27 34 27 57
0 18 -4 35 -8 38 -4 2 -6 -11 -4 -30z"/>
<path d="M1131 579 c-13 -10 -29 -19 -36 -19 -6 0 -25 -12 -41 -27 -24 -21
-24 -23 -4 -9 39 26 72 37 89 31 8 -3 12 -3 8 1 -4 4 -2 13 5 21 18 22 5 23
-21 2z"/>
<path d="M890 550 c-39 -39 -12 -90 48 -90 21 0 32 -6 35 -17 4 -14 5 -15 6
-2 0 8 -6 24 -15 35 -8 10 -13 13 -9 7 4 -9 -3 -13 -22 -13 -54 0 -70 43 -31
80 12 11 19 20 15 20 -4 0 -16 -9 -27 -20z"/>
<path d="M1155 510 c-3 -5 -1 -10 4 -10 6 0 11 5 11 10 0 6 -2 10 -4 10 -3 0
-8 -4 -11 -10z"/>
<path d="M1078 479 c-21 -11 -38 -22 -38 -24 0 -3 17 3 38 13 20 11 44 22 52
25 13 5 13 5 0 6 -8 0 -32 -9 -52 -20z"/>
<path d="M1800 401 l0 -79 -34 34 c-19 19 -42 34 -52 34 -12 -1 -7 -6 13 -15
36 -16 73 -68 73 -103 0 -37 -27 -86 -58 -104 -15 -10 -21 -18 -14 -18 8 0 27
14 43 31 l29 31 0 -36 0 -37 48 3 c44 3 47 5 50 33 5 47 16 48 48 5 28 -38 31
-40 87 -40 67 0 67 -1 -7 90 l-45 55 52 53 51 52 -59 0 c-53 0 -62 -3 -92 -32
l-33 -32 0 77 0 77 -50 0 -50 0 0 -79z m90 -13 l0 -82 38 37 c33 33 44 37 87
37 l50 0 -47 -47 -47 -47 50 -63 c27 -34 49 -65 49 -68 0 -3 -20 -5 -45 -5
-39 0 -47 4 -76 40 -36 45 -59 40 -59 -11 0 -27 -3 -29 -40 -29 l-40 0 0 160
0 160 40 0 40 0 0 -82z"/>
<path d="M623 460 c50 -9 113 -40 111 -55 0 -5 -13 -18 -27 -29 -23 -17 -28
-17 -44 -5 -16 13 -17 12 -4 -3 19 -25 33 -22 64 10 26 27 27 29 9 45 -27 25
-88 47 -124 46 -27 -1 -25 -3 15 -9z"/>
<path d="M1148 463 c6 -2 18 -2 25 0 6 3 1 5 -13 5 -14 0 -19 -2 -12 -5z"/>
<path d="M548 453 c7 -3 16 -2 19 1 4 3 -2 6 -13 5 -11 0 -14 -3 -6 -6z"/>
<path d="M1236 441 c23 -10 44 -23 47 -29 9 -14 -39 -55 -55 -47 -10 6 -11 5
-1 -5 19 -20 78 37 61 57 -14 18 -62 43 -80 43 -7 0 6 -9 28 -19z"/>
<path d="M1000 430 c-14 -11 -20 -20 -14 -20 6 0 19 9 29 20 23 25 17 25 -15
0z"/>
<path d="M1065 440 c-3 -6 1 -7 9 -4 18 7 21 14 7 14 -6 0 -13 -4 -16 -10z"/>
<path d="M471 405 c-17 -20 -31 -41 -31 -48 0 -7 6 -3 12 8 6 11 22 32 36 48
14 15 23 27 20 27 -3 0 -20 -16 -37 -35z"/>
<path d="M1020 399 c-12 -16 -21 -32 -18 -34 2 -2 13 12 26 31 28 42 21 45 -8
3z"/>
<path d="M858 393 c6 -2 18 -2 25 0 6 3 1 5 -13 5 -14 0 -19 -2 -12 -5z"/>
<path d="M1398 393 c6 -2 18 -2 25 0 6 3 1 5 -13 5 -14 0 -19 -2 -12 -5z"/>
<path d="M1658 393 c6 -2 18 -2 25 0 6 3 1 5 -13 5 -14 0 -19 -2 -12 -5z"/>
<path d="M593 383 c9 -2 25 -2 35 0 9 3 1 5 -18 5 -19 0 -27 -2 -17 -5z"/>
<path d="M790 373 c-14 -9 -31 -25 -38 -35 -9 -13 -26 -18 -58 -18 l-44 0 0
-44 c0 -24 -5 -47 -10 -49 -6 -3 -5 -4 2 -3 8 1 14 21 16 44 3 41 4 42 38 42
l34 0 0 -65 c0 -50 -4 -66 -17 -74 -10 -6 -13 -11 -7 -11 25 0 38 33 36 89 -3
66 19 104 72 127 17 7 24 13 16 14 -9 0 -27 -8 -40 -17z"/>
<path d="M920 379 c14 -6 37 -22 53 -36 23 -23 27 -24 27 -8 0 10 -3 15 -6 12
-4 -4 -20 5 -36 18 -16 14 -37 25 -46 24 -11 0 -8 -4 8 -10z"/>
<path d="M1153 383 c9 -2 23 -2 30 0 6 3 -1 5 -18 5 -16 0 -22 -2 -12 -5z"/>
<path d="M1322 363 c-15 -16 -19 -20 -7 -11 11 9 31 21 45 27 17 7 20 10 8 10
-10 1 -30 -11 -46 -26z"/>
<path d="M1448 383 c7 -3 16 -2 19 1 4 3 -2 6 -13 5 -11 0 -14 -3 -6 -6z"/>
<path d="M545 360 c-10 -11 -16 -22 -14 -24 2 -2 12 7 22 20 22 29 17 32 -8 4z"/>
<path d="M1101 354 c-12 -15 -21 -39 -21 -54 0 -33 35 -80 58 -79 13 0 11 3
-5 9 -45 18 -56 80 -22 124 11 14 18 26 15 26 -2 0 -14 -12 -25 -26z"/>
<path d="M1496 363 c12 -10 25 -26 30 -35 8 -15 13 -12 43 19 22 23 26 31 13
24 -12 -6 -26 -19 -32 -29 -9 -16 -11 -16 -20 0 -6 10 -21 23 -33 29 l-22 10
21 -18z"/>
<path d="M433 300 c0 -25 2 -35 4 -22 2 12 2 32 0 45 -2 12 -4 2 -4 -23z"/>
<path d="M520 307 c-1 -40 49 -101 68 -82 3 3 1 5 -4 5 -20 0 -36 19 -49 56
-8 21 -14 31 -15 21z"/>
<path d="M832 308 c-29 -29 -3 -98 37 -98 22 0 51 31 51 54 0 23 -18 56 -31
56 -6 0 -3 -7 6 -16 34 -35 -3 -103 -42 -78 -22 13 -29 60 -12 80 14 17 8 19
-9 2z"/>
<path d="M1276 305 c-3 -9 -6 -28 -6 -41 0 -26 -9 -31 -26 -14 -8 8 -15 6 -24
-5 -7 -8 -20 -15 -29 -16 -11 0 -12 -2 -3 -6 7 -3 21 2 30 11 16 14 20 13 47
-9 l30 -25 -25 -21 -25 -21 25 15 c23 13 28 13 49 -4 13 -11 28 -19 35 -19 6
0 -3 9 -21 19 -17 11 -34 29 -38 40 -3 12 -10 21 -14 21 -5 0 -5 19 -1 43 9
44 7 59 -4 32z"/>
<path d="M1370 299 c-6 -11 -9 -28 -7 -37 4 -13 5 -11 6 5 0 12 8 29 17 37 8
9 11 16 5 16 -6 0 -15 -9 -21 -21z"/>
<path d="M1438 308 c33 -42 -7 -106 -50 -79 -21 13 -22 13 -9 -2 29 -36 81 -9
81 42 0 16 -8 35 -17 42 -16 13 -17 12 -5 -3z"/>
<path d="M1632 308 c-7 -7 -12 -27 -12 -45 0 -26 6 -36 24 -45 31 -14 53 -5
68 27 13 28 -2 75 -23 75 -7 0 -4 -8 6 -20 35 -39 -11 -102 -50 -70 -18 15
-20 61 -3 78 7 7 10 12 7 12 -3 0 -10 -5 -17 -12z"/>
<path d="M990 219 c-8 -17 -27 -40 -44 -50 -17 -10 -26 -19 -21 -19 28 0 97
81 82 96 -2 3 -10 -10 -17 -27z"/>
<path d="M450 223 c0 -14 67 -73 83 -73 7 0 -2 9 -19 19 -18 11 -39 30 -48 42
-9 13 -16 18 -16 12z"/>
<path d="M1047 183 c18 -18 38 -33 45 -33 7 0 4 6 -7 12 -11 6 -31 20 -45 32
-14 11 -11 6 7 -11z"/>
<path d="M1526 205 c-10 -26 -69 -55 -116 -57 -39 -1 -41 -2 -11 -5 46 -6 74
2 111 33 l31 27 26 -24 27 -24 -25 32 c-27 36 -34 39 -43 18z"/>
<path d="M763 182 c27 -29 69 -44 113 -39 38 4 38 4 -7 5 -31 1 -59 11 -85 28
-30 20 -35 22 -21 6z"/>
<path d="M1611 149 c8 -5 34 -8 59 -8 53 1 44 6 -24 12 -30 3 -43 1 -35 -4z"/>
<path d="M563 143 c9 -2 23 -2 30 0 6 3 -1 5 -18 5 -16 0 -22 -2 -12 -5z"/>
<path d="M623 143 c9 -2 23 -2 30 0 6 3 -1 5 -18 5 -16 0 -22 -2 -12 -5z"/>
<path d="M1123 143 c9 -2 23 -2 30 0 6 3 -1 5 -18 5 -16 0 -22 -2 -12 -5z"/>
<path d="M1183 143 c9 -2 23 -2 30 0 6 3 -1 5 -18 5 -16 0 -22 -2 -12 -5z"/>
</g>
</svg>
